<?xml version="1.0" encoding="utf-8"?>
<!-- Generator: Adobe Illustrator 24.0.2, SVG Export Plug-In . SVG Version: 6.00 Build 0)  -->
<svg version="1.1" id="Layer_1" xmlns="http://www.w3.org/2000/svg" xmlns:xlink="http://www.w3.org/1999/xlink" x="0px" y="0px"
	 viewBox="0 0 32 32" style="enable-background:new 0 0 32 32;" xml:space="preserve">
<style type="text/css">
	.st0{fill:url(#SVGID_1_);}
	.st1{fill:url(#SVGID_2_);}
	.st2{fill:#FFFFFF;}
</style>
<g>
	<linearGradient id="SVGID_1_" gradientUnits="userSpaceOnUse" x1="9.094947e-13" y1="16" x2="32" y2="16">
		<stop  offset="0" style="stop-color:#CCE0F4"/>
		<stop  offset="6.405089e-02" style="stop-color:#C3DCF2"/>
		<stop  offset="0.1706" style="stop-color:#A9D2EE"/>
		<stop  offset="0.3066" style="stop-color:#80C2E7"/>
		<stop  offset="0.4649" style="stop-color:#47ACDE"/>
		<stop  offset="0.5674" style="stop-color:#1E9CD7"/>
		<stop  offset="0.8652" style="stop-color:#0075BE"/>
		<stop  offset="0.9944" style="stop-color:#005B97"/>
	</linearGradient>
	<rect x="0" class="st0" width="32" height="32"/>
</g>
<g>
	
		<linearGradient id="SVGID_2_" gradientUnits="userSpaceOnUse" x1="3" y1="16" x2="29" y2="16" gradientTransform="matrix(-1 0 0 -1 32 32)">
		<stop  offset="0" style="stop-color:#CCE0F4"/>
		<stop  offset="6.405089e-02" style="stop-color:#C3DCF2"/>
		<stop  offset="0.1706" style="stop-color:#A9D2EE"/>
		<stop  offset="0.3066" style="stop-color:#80C2E7"/>
		<stop  offset="0.4649" style="stop-color:#47ACDE"/>
		<stop  offset="0.5674" style="stop-color:#1E9CD7"/>
		<stop  offset="0.8652" style="stop-color:#0075BE"/>
		<stop  offset="0.9944" style="stop-color:#005B97"/>
	</linearGradient>
	<rect x="3" y="3" class="st1" width="26" height="26"/>
</g>
<g>
	<path class="st2" d="M8.8,23.1H4.6l2.6-12.4H3.7l0.8-3.5h11.2l-0.8,3.5h-3.5L8.8,23.1z"/>
	<path d="M20.2,17.3l-1.2,5.8h-4.3L18,7.2h4.2c1.8,0,3.2,0.4,4.2,1.1c1,0.7,1.5,1.8,1.5,3.3c0,1.1-0.3,2.1-0.8,3
		c-0.5,0.8-1.3,1.5-2.3,1.9l2.4,5.6l0.4,1h-4.6l-2.1-5.8H20.2z M20.8,14.1h0.6c0.7,0,1.2-0.2,1.6-0.6c0.4-0.4,0.6-0.9,0.6-1.7
		c0-0.5-0.1-0.8-0.4-1c-0.3-0.2-0.6-0.4-1.1-0.4h-0.6L20.8,14.1z"/>
</g>
</svg>
